<?xml version="1.0" encoding="iso-8859-1"?>
<!-- Generator: Adobe Illustrator 19.0.0, SVG Export Plug-In . SVG Version: 6.00 Build 0)  -->
<svg version="1.1" id="Capa_1" xmlns="http://www.w3.org/2000/svg" xmlns:xlink="http://www.w3.org/1999/xlink" x="0px" y="0px"
	 viewBox="0 0 511.999 511.999" style="enable-background:new 0 0 511.999 511.999;" xml:space="preserve">
<g>
	<g>
		<path d="M504.899,277.735c-3.663-0.209-6.881,2.292-7.698,5.756c-1.884,0.652-6.484,0.912-10.491-0.049
			c-13.151-3.156-16.931-17.477-20.834-37.363c-0.378-1.929-0.749-3.817-1.13-5.641c-10.699-51.266-33.914-80.013-74.555-91.647
			c-1.097-0.373-9.639-2.405-12.038-2.865c-38.526-7.382-99.719,0.421-140.211,5.585c-15.349,1.958-28.604,3.648-35.364,3.803
			c-20.888,0.453-40.339-7.786-59.156-15.778c-18.556-7.881-36.121-15.313-54.412-14.518c-1.473-2.398-3.228-4.698-5.326-6.705
			c-2.166-2.071-5.356-2.657-8.118-1.482c-0.571,0.243-10.644,4.629-18.018,14.08c-20.808,4.164-30.003,10.039-38.715,24.441
			c-7.852,12.98-18.045,44.625-18.475,45.966c-0.739,2.305-0.321,4.823,1.122,6.766c6.174,8.305,21.837,27.717,33.916,28.601
			c0.326,0.024,0.649,0.036,0.971,0.036c3.253,0,6.242-1.215,8.501-3.473c8.855-8.856,16.579-12.949,25.04-13.269
			c1.729-0.074,3.876,0.18,6.15,0.44c4.248,0.485,9.692,1.099,15.25-0.274c22.553,57.425-1.483,120.448-8.537,136.719
			c-7.915,0.894-15.02,5.822-18.554,13.063l-7.345,15.049c-1.135,2.325-0.991,5.07,0.379,7.264c1.371,2.193,3.774,3.526,6.361,3.526
			h32.636c1.535,0,3.032-0.471,4.291-1.349c25.916-18.08,48.462-56.072,64.216-88.605l18.908,53.062
			c-4.613,2.127-8.492,5.733-10.955,10.407l-8.159,15.489c-1.225,2.324-1.144,5.121,0.215,7.37c1.357,2.25,3.793,3.625,6.421,3.625
			h36.717c3.013,0,5.733-1.803,6.907-4.578l13.565-32.063c0.541-1.278,0.717-2.682,0.507-4.054l-9.652-63.199
			c49.802-4.832,81.718-15.006,97.897-21.503c1.874,23.499,8.438,67.711,11.296,86.414c-7.52,0.567-14.453,4.778-18.388,11.276
			l-9.885,16.322c-1.402,2.315-1.448,5.208-0.119,7.566c1.329,2.359,3.826,3.818,6.534,3.818h38.613
			c2.416,0,4.684-1.164,6.093-3.126l18.704-26.053c0.915-1.274,1.407-2.805,1.407-4.374c0-20.273,2.799-38.747,5.866-51.384
			c4.365,2.942,8.825,6.112,13.411,9.697c14.55,11.373,19.374,28.546,20.952,37.678c-6.523,2.438-11.777,7.71-14.076,14.603
			l-4.362,13.087c-0.763,2.287-0.379,4.802,1.031,6.758c1.409,1.955,3.673,3.114,6.084,3.114h40.081
			c3.868,0,7.103-2.942,7.467-6.794l7.849-83.001c0.19-2.016-0.442-4.022-1.754-5.565c-0.286-0.336-28.607-34.167-28.607-79.978
			V198.05c0-4.271-0.526-8.445-1.511-12.456c12.513,13.505,20.931,32.424,26.25,57.908c0.369,1.767,0.728,3.597,1.095,5.465
			c3.596,18.321,8.521,43.413,32.052,49.061c2.345,0.563,5.691,1.051,9.287,1.051c4.944,0,10.357-0.924,14.274-3.845
			c3.159-2.357,5.013-5.77,5.218-9.609C512.208,281.488,509.034,277.956,504.899,277.735z M202.931,380.765h-19.318l2.367-4.493
			c1.48-2.81,4.373-4.556,7.549-4.556c2.438,0,4.724-1.185,6.129-3.178c1.405-1.992,1.754-4.543,0.936-6.84l-23.981-67.299
			c9.703-0.235,18.91-0.676,27.633-1.284l9.487,62.12L202.931,380.765z M356.395,359.781l-15.065,20.984h-21.454l2.989-4.937
			c1.536-2.537,4.333-4.112,7.298-4.112h6.999c2.192,0,4.275-0.96,5.7-2.626c1.426-1.667,2.05-3.874,1.709-6.04
			c-0.101-0.638-8.195-52.215-11.537-83.708c8.9,8.93,19.284,15.519,30.673,22.725c0.093,0.059,0.188,0.119,0.281,0.178
			C360.336,315.387,356.639,336.463,356.395,359.781z M426.836,285.723c5.424,10.553,10.788,18.125,13.629,21.843l-6.92,73.199
			h-22.852l1.072-3.215c1.163-3.489,4.416-5.834,8.095-5.834c2.025,0,3.965-0.819,5.377-2.271c1.412-1.452,2.177-3.413,2.12-5.438
			c-0.039-1.412-1.268-34.824-27.46-55.299c-10.02-7.832-19.662-13.934-28.171-19.316c-16.698-10.565-29.888-18.91-39.064-35.089
			c-0.71-1.253-1.733-2.215-2.912-2.86l0.003-0.011c-34.049-18.727-75.346-20.323-103.998-18.366
			c-4.132,0.282-7.253,3.861-6.971,7.994c0.282,4.132,3.855,7.25,7.994,6.971c22.545-1.542,53.392-0.779,81.046,9.774
			c-20.612,7.698-63.437,19.881-131.113,21.588c4.874-11.524,8.35-20.744,10.164-25.721c1.916-0.427,4.51-0.973,7.664-1.561
			c4.071-0.76,6.757-4.676,5.998-8.748c-0.76-4.072-4.673-6.762-8.748-5.998c-7.734,1.442-12.328,2.646-12.521,2.697
			c-2.417,0.637-4.358,2.438-5.176,4.8c-0.359,1.04-35.988,102.878-80.267,135.903H75.617l2.079-4.26
			c1.42-2.909,4.43-4.789,7.667-4.789h2.296c2.841,0,5.438-1.605,6.708-4.146c0.427-0.854,10.524-21.247,16.736-50.841
			c8.053-38.37,5.663-74.494-6.891-104.689c3.009-3.503,5.753-8.311,8.005-14.877c1.343-3.919-0.744-8.184-4.662-9.527
			c-3.914-1.343-8.183,0.743-9.527,4.662c-5.125,14.947-10.823,14.297-20.267,13.215c-2.731-0.312-5.56-0.63-8.422-0.527
			c-11.908,0.451-22.691,5.675-33.817,16.41c-3.967-1.782-12.402-10.033-19.663-19.214c3.54-10.589,10.729-30.676,15.806-39.069
			c4.903-8.104,9.041-12.202,19.766-15.341c0.805,2.111,2.543,3.839,4.877,4.529c3.97,1.176,8.144-1.095,9.317-5.067
			c1.922-6.503,7.052-11.1,10.951-13.782c3.036,5.281,4.467,11.993,4.805,14.725c0.459,3.807,3.694,6.604,7.437,6.604
			c0.295,0,0.592-0.018,0.892-0.053c4.113-0.487,7.054-4.217,6.566-8.33c-0.076-0.642-0.393-3.048-1.197-6.32
			c8.093,0.557,16.49,2.974,25.161,6.208v30.219c0,4.143,3.357,7.5,7.5,7.5c4.143,0,7.5-3.357,7.5-7.5v-24.147
			c0.771,0.327,1.542,0.654,2.317,0.983c6.373,2.706,13.026,5.529,19.943,8.081l-28.929,96.429c-1.19,3.968,1.061,8.148,5.028,9.339
			c0.719,0.216,1.444,0.318,2.158,0.318c3.226,0,6.206-2.098,7.181-5.347l28.829-96.095c9.914,2.741,20.306,4.488,31.151,4.243
			c3.969-0.09,9.453-0.594,16.139-1.353l11.683,41.64c0.929,3.311,3.939,5.476,7.217,5.476c0.671,0,1.353-0.091,2.03-0.281
			c3.988-1.118,6.313-5.259,5.194-9.247l-11.062-39.425c1.856-0.235,3.761-0.478,5.718-0.728
			c26.241-3.346,61.378-7.825,92.625-8.436l-14.622,61.232c-0.962,4.029,1.524,8.075,5.553,9.037
			c0.586,0.14,1.172,0.207,1.748,0.207c3.392,0,6.467-2.316,7.289-5.76l15.444-64.672c10.008,0.283,19.329,1.102,27.455,2.659
			c3.668,0.703,7.177,1.542,10.55,2.506c14.534,5.193,24.443,19.127,24.443,34.886v22.377c0,2.344,0.078,4.652,0.201,6.934
			l-33.683,27.503c-3.209,2.62-3.686,7.345-1.066,10.553c1.482,1.816,3.64,2.757,5.814,2.757c1.667,0,3.346-0.554,4.738-1.69
			l26.338-21.506c1.869,9.872,4.693,18.912,7.879,26.913l-10.388,6.926c-3.446,2.298-4.378,6.954-2.08,10.4
			c1.445,2.168,3.823,3.341,6.247,3.341c1.43,0,2.875-0.408,4.153-1.261L426.836,285.723z"/>
	</g>
</g>
<g>
	<g>
		<path d="M290.575,176.787c-3.905-1.391-8.191,0.65-9.579,4.554l-10.688,30.061c-1.388,3.903,0.651,8.191,4.554,9.579
			c0.831,0.296,1.679,0.436,2.513,0.436c3.084,0,5.975-1.917,7.066-4.989l10.688-30.061
			C296.517,182.462,294.478,178.174,290.575,176.787z"/>
	</g>
</g>
<g>
	<g>
		<path d="M383.404,182.123c-3.91-1.372-8.188,0.681-9.563,4.587l-10.688,30.395c-1.374,3.908,0.68,8.189,4.587,9.563
			c0.823,0.289,1.663,0.427,2.488,0.427c3.093-0.001,5.99-1.93,7.075-5.014l10.688-30.395
			C389.365,187.778,387.311,183.497,383.404,182.123z"/>
	</g>
</g>
<g>
	<g>
		<path d="M205.454,210.949l-5.344-19.706c-1.084-3.999-5.206-6.36-9.201-5.275c-3.998,1.084-6.359,5.203-5.275,9.201l5.344,19.706
			c0.905,3.341,3.931,5.539,7.233,5.539c0.65,0,1.311-0.085,1.968-0.264C204.177,219.066,206.538,214.947,205.454,210.949z"/>
	</g>
</g>
<g>
</g>
<g>
</g>
<g>
</g>
<g>
</g>
<g>
</g>
<g>
</g>
<g>
</g>
<g>
</g>
<g>
</g>
<g>
</g>
<g>
</g>
<g>
</g>
<g>
</g>
<g>
</g>
<g>
</g>
</svg>
